<?xml version="1.0" encoding="UTF-8"?>
<svg width="152px" height="53px" viewBox="0 0 152 53" version="1.1" xmlns="http://www.w3.org/2000/svg" xmlns:xlink="http://www.w3.org/1999/xlink">
    <title>F12C94D1-B598-4B9B-B485-417B6C19A9A6</title>
    <g id="Page-1" stroke="none" stroke-width="1" fill="none" fill-rule="evenodd">
        <g id="v2" transform="translate(-60.000000, -50.000000)">
            <g id="Logo" transform="translate(-48.000000, -57.000000)">
                <g id="CSDN-logodesktop" transform="translate(108.000000, 107.000000)">
                    <path d="M60.788419,45.7085068 L60.7869714,36.1895616 L60.7153143,36.1895616 C60.3787429,36.5017534 59.1301714,36.5271644 58.6032381,36.5271644 L57.6854476,36.5271644 L57.6854476,36.6033973 C58.7458286,37.2575479 58.6003429,38.2202603 58.6003429,39.4196575 L58.6017905,43.4483836 C58.6017905,45.4631096 56.6294095,46.8759589 55.0406476,46.8759589 C52.9437714,46.8759589 52.0759238,45.3839726 52.0759238,42.9779178 L52.0759238,36.1895616 L52.0042667,36.1895616 C51.6662476,36.5017534 50.4118857,36.5271644 49.8820571,36.5271644 L48.9744,36.5271644 L48.9744,36.6048493 C50.0318857,37.2575479 49.8892952,38.2202603 49.8892952,39.4196575 L49.8892952,43.433863 C49.8892952,47.1097397 51.4780571,48.8551096 54.3182857,48.8551096 C56.0018667,48.8551096 57.7339429,48.255411 58.6017905,46.8229589 L58.6017905,48.5588904 L61.7018667,48.5588904 L61.7018667,48.4826575 C60.6429333,47.8793288 60.788419,46.9108082 60.788419,45.7085068" id="Fill-1" fill="#1A1919"></path>
                    <path d="M74.3417524,42.135 C74.4365714,38.7756712 72.1956571,36.2418356 68.9218667,36.2418356 C65.3339429,36.2418356 62.9019429,38.8540822 62.9019429,42.4769589 C62.9019429,46.1281507 65.7182857,48.9073836 69.8136,48.9073836 C70.9463619,48.9073836 72.1022857,48.7273288 73.1373333,48.2612192 L74.3417524,45.8123288 L74.2679238,45.8123288 C73.161219,46.7568904 71.7642667,47.2033973 70.3180952,47.2033973 C67.5987429,47.2033973 65.5496381,45.3382329 65.5018667,42.135 L74.3417524,42.135 Z M65.5981333,40.6183288 C65.8876571,38.9833151 67.0920762,37.9450959 68.7054476,37.9450959 C70.4396952,37.9450959 71.5471238,38.8032603 71.8127619,40.6183288 L65.5981333,40.6183288 L65.5981333,40.6183288 Z" id="Fill-2" fill="#1A1919"></path>
                    <path d="M76.2533333,30.660863 C76.8294857,30.660863 78.0056762,30.6238356 78.3625143,30.2724384 L78.4327238,30.2724384 L78.4327238,46.7583425 C79.0790857,46.9398493 79.750781,47.0698082 80.4203048,47.0698082 C83.0513524,47.0698082 84.5597714,45.2235205 84.5597714,42.6497534 C84.5597714,40.1260822 83.3879238,38.1774247 80.9704,38.1774247 C80.2060571,38.1774247 79.6074667,38.3843425 78.960381,38.7488082 L80.252381,36.5286164 C80.8024762,36.3202466 81.3779048,36.2418356 81.9518857,36.2418356 C84.6813714,36.2418356 87.001181,38.6188493 87.001181,42.1821918 C87.001181,46.2631918 84.2485333,48.9037534 79.8933714,48.9037534 C78.2662476,48.9037534 76.7042667,48.6155205 75.525181,48.4311096 L75.525181,48.3534247 C76.3192,47.9875068 76.2475429,47.1228082 76.2475429,46.2631918 L76.2475429,34.2793836 C76.2475429,33.0756301 76.3930286,31.3919726 75.3565333,30.7385479 L75.3565333,30.660863 L76.2533333,30.660863" id="Fill-3" fill="#1A1919"></path>
                    <path d="M100.020343,42.135 C100.118781,38.7756712 97.8771429,36.2418356 94.601181,36.2418356 C91.0103619,36.2418356 88.5805333,38.8540822 88.5805333,42.4769589 C88.5805333,46.1281507 91.3976,48.9073836 95.4921905,48.9073836 C96.6256762,48.9073836 97.7823238,48.7273288 98.8166476,48.2612192 L100.020343,45.8123288 L99.9494095,45.8123288 C98.8412571,46.7568904 97.4443048,47.2033973 95.9981333,47.2033973 C93.2751619,47.2033973 91.2296762,45.3382329 91.1819048,42.135 L100.020343,42.135 Z M91.276,40.6183288 C91.5676952,38.9833151 92.769219,37.9450959 94.3847619,37.9450959 C96.1197333,37.9450959 97.2264381,38.8032603 97.4920762,40.6183288 L91.276,40.6183288 L91.276,40.6183288 Z" id="Fill-4" fill="#1A1919"></path>
                    <path d="M110.793524,39.2272603 L110.721867,39.2272603 C110.021943,38.3647397 108.866743,37.9450959 107.782476,37.9450959 C105.447467,37.9450959 103.761714,39.724589 103.761714,42.2090548 C103.761714,45.2169863 106.096,47.2033973 108.770476,47.2033973 C109.999505,47.2033973 111.347962,46.6799315 112.286743,45.9212329 L112.359848,45.9212329 L111.109105,48.3904521 C110.094324,48.8042877 108.986895,48.9073836 107.925067,48.9073836 C104.21699,48.9073836 101.318857,46.2886027 101.318857,42.8878904 C101.318857,38.3916027 104.556457,36.2418356 108.191429,36.2418356 C109.060724,36.2418356 109.95101,36.3442055 110.793524,36.5511233 L110.793524,39.2272603" id="Fill-5" fill="#1A1919"></path>
                    <path d="M71.3364952,34.0840822 C71.3364952,32.8687123 71.3364952,31.4674795 71.3364952,31.4674795 C69.7585905,32.1782603 68.2928762,33.5054384 67.3128381,34.7970411 L67.3128381,35.8149315 C69.6565333,34.2314658 71.3364952,34.157411 71.3364952,34.0840822" id="Fill-6" fill="#1A1919"></path>
                    <path d="M51.5287238,51.1101507 C48.8419429,51.5508493 46.2615619,50.7013973 43.5176,47.5533425 C46.1667429,46.2189041 47.8054476,42.8966027 47.8054476,39.8095342 C47.8054476,39.7783151 47.8054476,39.4566849 47.8054476,39.4269178 C47.7569524,34.1436164 43.8035048,30.6550548 39.0857143,30.6550548 C34.3599619,30.6550548 30.183581,34.2866438 30.1481143,39.6098767 C30.1481143,39.6338356 30.1481143,39.9445753 30.1481143,39.9656301 C30.1481143,45.1472877 33.9777905,48.9916027 38.6760381,48.9916027 C39.3499048,48.9916027 40.0020571,48.8877808 40.6505905,48.7302329 C43.726781,51.622 46.4692952,52.8526164 48.8390476,52.5665616 C49.9638476,52.4315205 51.1501714,51.9821096 51.8638476,51.0535205 L51.5287238,51.1101507 Z M39.060381,47.1097397 C35.4239619,47.1097397 32.8935238,42.9931644 32.8935238,39.4966164 C32.8935238,39.4610411 32.8935238,39.1372329 32.8935238,39.1038356 C32.9405714,35.7161918 35.1257524,32.5383699 38.9416762,32.5383699 C42.9566476,32.5383699 45.026019,36.3485616 45.0585905,39.9569178 C45.0585905,39.9852329 45.0585905,40.3032329 45.0585905,40.333 C45.0585905,44.1787671 42.6750857,47.1097397 39.060381,47.1097397 L39.060381,47.1097397 Z" id="Fill-7" fill="#1A1919"></path>
                    <path d="M6.79367619,2.0510274 C6.33405714,1.76279452 5.81653333,1.61831507 5.2136,1.61831507 C3.5951619,1.61831507 2.66651429,2.59845205 2.66651429,4.19280822 C2.66651429,5.23030137 3.38453333,5.90260274 4.56217143,5.90260274 C5.08910476,5.90260274 5.6160381,5.75812329 6.15165714,5.48949315 L5.97939048,7.02576712 C5.34750476,7.18984932 4.74457143,7.27552055 4.15973333,7.27552055 C2.0440381,7.27552055 0.837447619,6.08483562 0.837447619,4.14489041 C0.837447619,3.11683562 1.22975238,2.12726027 1.87177143,1.46512329 C2.67592381,0.63890411 3.64293333,0.302753425 4.97401905,0.302753425 C5.6920381,0.302753425 6.43900952,0.437068493 7.23375238,0.696260274 L6.79367619,2.0510274" id="Fill-8" fill="#1A1919"></path>
                    <path d="M10.8057524,3.9140137 C10.8057524,3.36658904 10.4706286,3.021 9.94369524,3.021 C9.41748571,3.021 8.97668571,3.43410959 8.7856,4.14489041 L10.7862095,4.14489041 C10.7963429,4.06793151 10.8057524,3.9909726 10.8057524,3.9140137 Z M8.5648381,5.09526027 C8.63215238,5.82564384 9.03386667,6.16179452 9.82860952,6.16179452 C10.3562667,6.16179452 10.9396571,6.03691781 11.5049524,5.78716438 L11.3131429,7.00689041 C10.7290286,7.18984932 10.1166857,7.28568493 9.49348571,7.28568493 C7.94308571,7.28568493 7.02312381,6.37306849 7.02312381,4.97038356 C7.02312381,4.16376712 7.36838095,3.32810959 7.90472381,2.80028767 C8.42152381,2.29061644 9.16849524,2.0219863 10.0971429,2.0219863 C11.4665905,2.0219863 12.2135619,2.80028767 12.2135619,4.15432877 C12.2135619,4.43312329 12.1744762,4.74967123 12.0984762,5.09526027 L8.5648381,5.09526027 L8.5648381,5.09526027 Z" id="Fill-9" fill="#1A1919"></path>
                    <path d="M17.8918476,7.12232877 L16.1778667,7.12232877 L16.6946667,4.64439726 C16.7330286,4.46143836 16.7525714,4.29808219 16.7525714,4.15432877 C16.7525714,3.68313699 16.5122667,3.42394521 16.1300952,3.42394521 C15.4504381,3.42394521 15.0002286,3.96193151 14.7700571,5.03790411 L14.329981,7.12232877 L12.6058667,7.12232877 L13.6590095,2.13742466 L15.2014476,2.13742466 L15.0096381,3.021 C15.5648,2.38717808 16.1966857,2.06046575 16.8864762,2.06046575 C17.9012571,2.06046575 18.4955048,2.68484932 18.4955048,3.78913699 C18.4955048,4.10641096 18.4376,4.558 18.3131048,5.15334247 L17.8918476,7.12232877" id="Fill-10" fill="#1A1919"></path>
                    <path d="M22.2014095,2.18534247 L23.4174095,2.18534247 L23.168419,3.36658904 L21.9516952,3.36658904 L21.5883429,5.08582192 C21.5405714,5.29709589 21.5210286,5.44157534 21.5210286,5.51780822 C21.5210286,5.87356164 21.6744762,6.02675342 22.0573714,6.02675342 C22.1912762,6.02675342 22.3830857,5.99843836 22.6226667,5.93091781 L22.3729524,7.11289041 C21.9806476,7.17968493 21.6650667,7.21816438 21.4254857,7.21816438 C20.4012952,7.21816438 19.8164571,6.67073973 19.8164571,5.71964384 C19.8164571,5.54684932 19.8352762,5.38349315 19.8642286,5.23030137 L20.2572571,3.36658904 L19.2518857,3.36658904 L19.5001524,2.18534247 L20.5062476,2.18534247 L20.7552381,1.01353425 L22.5553524,0.53290411 L22.2014095,2.18534247" id="Fill-11" fill="#1A1919"></path>
                    <path d="M27.6017524,3.59746575 C27.295581,3.51106849 27.0458667,3.46242466 26.854781,3.46242466 C26.0701714,3.46242466 25.7249143,3.95249315 25.5041524,4.9899863 L25.0452571,7.12232877 L23.3218667,7.12232877 L24.3265143,2.16646575 L25.8877714,2.16646575 L25.7060952,3.06891781 C26.1845333,2.37773973 26.6636952,2.0510274 27.3339429,2.0510274 C27.5445714,2.0510274 27.7552,2.08950685 27.9846476,2.15630137 L27.6017524,3.59746575" id="Fill-12" fill="#1A1919"></path>
                    <path d="M31.6616,3.9140137 C31.6616,3.36658904 31.3264762,3.021 30.8002667,3.021 C30.2733333,3.021 29.8332571,3.43410959 29.6414476,4.14489041 L31.642781,4.14489041 C31.6529143,4.06793151 31.6616,3.9909726 31.6616,3.9140137 Z M29.4214095,5.09526027 C29.488,5.82564384 29.8904381,6.16179452 30.685181,6.16179452 C31.2113905,6.16179452 31.7962286,6.03691781 32.3608,5.78716438 L32.1689905,7.00689041 C31.5856,7.18984932 30.9725333,7.28568493 30.3500571,7.28568493 C28.7989333,7.28568493 27.8796952,6.37306849 27.8796952,4.97038356 C27.8796952,4.16376712 28.2242286,3.32810959 28.7598476,2.80028767 C29.2773714,2.29061644 30.0243429,2.0219863 30.9537143,2.0219863 C32.3224381,2.0219863 33.0694095,2.80028767 33.0694095,4.15432877 C33.0694095,4.43312329 33.0310476,4.74967123 32.9543238,5.09526027 L29.4214095,5.09526027 L29.4214095,5.09526027 Z" id="Fill-13" fill="#1A1919"></path>
                    <path d="M3.69142857,12.9334521 C3.03059048,12.9334521 2.45588571,13.6442329 2.45588571,14.6338082 C2.45588571,15.2095479 2.80041905,15.5943425 3.30780952,15.5943425 C3.99687619,15.5943425 4.60994286,14.8835616 4.60994286,13.9419041 C4.60994286,13.3371233 4.22704762,12.9334521 3.69142857,12.9334521 Z M7.1664381,10.0620137 L5.7687619,16.7276712 L4.23718095,16.7276712 L4.41813333,15.9014521 C3.93969524,16.5447123 3.32735238,16.8714247 2.61801905,16.8714247 C1.45051429,16.8714247 0.693409524,16.0357671 0.693409524,14.6722877 C0.693409524,12.8760959 1.77550476,11.6563699 3.30780952,11.6563699 C4.02582857,11.6563699 4.59112381,11.9925205 4.92624762,12.6263425 L5.472,10.0620137 L7.1664381,10.0620137 L7.1664381,10.0620137 Z" id="Fill-14" fill="#1A1919"></path>
                    <path d="M11.0257905,13.5193562 C11.0257905,12.9719315 10.6913905,12.6263425 10.1644571,12.6263425 C9.63752381,12.6263425 9.19744762,13.0394521 9.0056381,13.7502329 L11.0069714,13.7502329 C11.016381,13.673274 11.0257905,13.5963151 11.0257905,13.5193562 Z M8.7856,14.7006027 C8.85219048,15.4309863 9.25462857,15.767137 10.0493714,15.767137 C10.575581,15.767137 11.160419,15.6422603 11.7249905,15.3925068 L11.5339048,16.6122329 C10.9497905,16.7951918 10.3367238,16.8910274 9.71424762,16.8910274 C8.1624,16.8910274 7.24388571,15.978411 7.24388571,14.575726 C7.24388571,13.7691096 7.58841905,12.9334521 8.1247619,12.4056301 C8.6415619,11.8959589 9.38853333,11.6273288 10.317181,11.6273288 C11.6866286,11.6273288 12.4336,12.4056301 12.4336,13.7596712 C12.4336,14.0384658 12.3952381,14.3550137 12.3192381,14.7006027 L8.7856,14.7006027 L8.7856,14.7006027 Z" id="Fill-15" fill="#1A1919"></path>
                    <path d="M20.0560381,13.0292877 C19.5674667,12.8659315 19.1563429,12.7512192 18.7539048,12.7512192 C18.2559238,12.7512192 17.9881143,12.9334521 17.9881143,13.2028082 C17.9881143,13.5483973 18.380419,13.5868767 19.0028952,13.8460685 C19.6919619,14.1343014 20.0082667,14.4987671 20.0082667,15.0657945 C20.0082667,16.112726 19.1462095,16.8619863 17.681219,16.8619863 C17.0109714,16.8619863 16.3602667,16.7654247 15.7182476,16.5447123 L16.0729143,15.3540274 C16.5419429,15.5849041 16.9921524,15.6901781 17.4510476,15.6901781 C18.0170667,15.6901781 18.3138286,15.5268219 18.3138286,15.2487534 C18.3138286,14.9024384 18.0257524,14.8356438 17.5958095,14.6628493 C16.7909333,14.336137 16.3602667,14.0283014 16.3602667,13.2696027 C16.3602667,12.376589 17.2121905,11.6462055 18.696,11.6462055 C19.2424762,11.6462055 19.8164571,11.7522055 20.4295238,11.9438767 L20.0560381,13.0292877" id="Fill-16" fill="#1A1919"></path>
                    <path d="M24.6145905,13.5193562 C24.6145905,12.9719315 24.2794667,12.6263425 23.7525333,12.6263425 C23.2256,12.6263425 22.7848,13.0394521 22.5937143,13.7502329 L24.5950476,13.7502329 C24.6044571,13.673274 24.6145905,13.5963151 24.6145905,13.5193562 Z M22.3736762,14.7006027 C22.4409905,15.4309863 22.8434286,15.767137 23.6374476,15.767137 C24.164381,15.767137 24.7477714,15.6422603 25.3137905,15.3925068 L25.121981,16.6122329 C24.5371429,16.7951918 23.9248,16.8910274 23.3023238,16.8910274 C21.7512,16.8910274 20.8319619,15.978411 20.8319619,14.575726 C20.8319619,13.7691096 21.1764952,12.9334521 21.7128381,12.4056301 C22.2303619,11.8959589 22.9766095,11.6273288 23.9052571,11.6273288 C25.2747048,11.6273288 26.0216762,12.4056301 26.0216762,13.7596712 C26.0216762,14.0384658 25.9833143,14.3550137 25.9073143,14.7006027 L22.3736762,14.7006027 L22.3736762,14.7006027 Z" id="Fill-17" fill="#1A1919"></path>
                    <path d="M30.7524952,13.2028082 C30.4463238,13.116411 30.1973333,13.0677671 30.0055238,13.0677671 C29.2201905,13.0677671 28.8756571,13.5578356 28.655619,14.5953288 L28.196,16.7276712 L26.4718857,16.7276712 L27.477981,11.7718082 L29.0385143,11.7718082 L28.8561143,12.6742603 C29.3352762,11.9830822 29.8137143,11.6563699 30.4839619,11.6563699 C30.6945905,11.6563699 30.905219,11.6948493 31.1353905,11.7616438 L30.7524952,13.2028082" id="Fill-18" fill="#1A1919"></path>
                    <polyline id="Fill-19" fill="#1A1919" points="32.8971429 11.7906849 33.2800381 15.344589 35.032381 11.7906849 36.833219 11.7906849 33.9416 16.7276712 32.0162667 16.7276712 31.1932952 11.7906849 32.8971429 11.7906849"></polyline>
                    <path d="M39.8500571,10.0620137 L39.6770667,10.945589 L38.0014476,10.945589 L38.1643048,10.0620137 L39.8500571,10.0620137 Z M39.4946667,11.7812466 L38.4227048,16.7276712 L36.7470857,16.7276712 L37.8197714,11.7812466 L39.4946667,11.7812466 L39.4946667,11.7812466 Z" id="Fill-20" fill="#1A1919"></path>
                    <path d="M44.3123429,13.1643288 C43.9482667,12.9915342 43.5936,12.905137 43.2584762,12.905137 C42.3392381,12.905137 41.735581,13.4808767 41.735581,14.3266986 C41.735581,15.0657945 42.2241524,15.5362603 43.0094857,15.5362603 C43.3250667,15.5362603 43.6413714,15.4600274 43.9866286,15.3061096 L43.7846857,16.6122329 C43.2678857,16.7465479 42.8089905,16.8140685 42.3776,16.8140685 C40.8648381,16.8140685 39.9361905,15.8825753 39.9361905,14.5183699 C39.9361905,12.8470548 41.1326476,11.6462055 43.0572571,11.6462055 C43.6131429,11.6462055 44.1588952,11.7522055 44.7046476,11.9729178 L44.3123429,13.1643288" id="Fill-21" fill="#1A1919"></path>
                    <path d="M48.5538667,13.5193562 C48.5538667,12.9719315 48.2187429,12.6263425 47.6925333,12.6263425 C47.1656,12.6263425 46.7248,13.0394521 46.5329905,13.7502329 L48.5350476,13.7502329 C48.5437333,13.673274 48.5538667,13.5963151 48.5538667,13.5193562 Z M46.3129524,14.7006027 C46.3802667,15.4309863 46.7827048,15.767137 47.5767238,15.767137 C48.1036571,15.767137 48.6884952,15.6422603 49.2530667,15.3925068 L49.0612571,16.6122329 C48.4778667,16.7951918 47.8648,16.8910274 47.2423238,16.8910274 C45.6904762,16.8910274 44.7712381,15.978411 44.7712381,14.575726 C44.7712381,13.7691096 45.1164952,12.9334521 45.6521143,12.4056301 C46.1696381,11.8959589 46.9158857,11.6273288 47.8452571,11.6273288 C49.2147048,11.6273288 49.9609524,12.4056301 49.9609524,13.7596712 C49.9609524,14.0384658 49.9233143,14.3550137 49.8465905,14.7006027 L46.3129524,14.7006027 L46.3129524,14.7006027 Z" id="Fill-22" fill="#1A1919"></path>
                    <path d="M54.6338667,13.0292877 C54.1467429,12.8659315 53.7341714,12.7512192 53.3324571,12.7512192 C52.8344762,12.7512192 52.5659429,12.9334521 52.5659429,13.2028082 C52.5659429,13.5483973 52.9589714,13.5868767 53.5807238,13.8460685 C54.2712381,14.1343014 54.586819,14.4987671 54.586819,15.0657945 C54.586819,16.112726 53.7247619,16.8619863 52.2597714,16.8619863 C51.5895238,16.8619863 50.9380952,16.7654247 50.2968,16.5447123 L50.6514667,15.3540274 C51.1204952,15.5849041 51.569981,15.6901781 52.0303238,15.6901781 C52.5948952,15.6901781 52.8916571,15.5268219 52.8916571,15.2487534 C52.8916571,14.9024384 52.6050286,14.8356438 52.1736381,14.6628493 C51.3694857,14.336137 50.9380952,14.0283014 50.9380952,13.2696027 C50.9380952,12.376589 51.7907429,11.6462055 53.2752762,11.6462055 C53.8203048,11.6462055 54.3950095,11.7522055 55.0080762,11.9438767 L54.6338667,13.0292877" id="Fill-23" fill="#1A1919"></path>
                    <path d="M62.3721143,13.0292877 C61.8835429,12.8659315 61.4716952,12.7512192 61.0692571,12.7512192 C60.572,12.7512192 60.3034667,12.9334521 60.3034667,13.2028082 C60.3034667,13.5483973 60.6957714,13.5868767 61.3189714,13.8460685 C62.0080381,14.1343014 62.323619,14.4987671 62.323619,15.0657945 C62.323619,16.112726 61.4622857,16.8619863 59.9972952,16.8619863 C59.3270476,16.8619863 58.675619,16.7654247 58.0343238,16.5447123 L58.3882667,15.3540274 C58.8572952,15.5849041 59.3075048,15.6901781 59.7671238,15.6901781 C60.332419,15.6901781 60.629181,15.5268219 60.629181,15.2487534 C60.629181,14.9024384 60.3418286,14.8356438 59.9104381,14.6628493 C59.1062857,14.336137 58.675619,14.0283014 58.675619,13.2696027 C58.675619,12.376589 59.5275429,11.6462055 61.0120762,11.6462055 C61.5578286,11.6462055 62.1325333,11.7522055 62.7448762,11.9438767 L62.3721143,13.0292877" id="Fill-24" fill="#1A1919"></path>
                    <path d="M67.4568762,13.1643288 C67.0928,12.9915342 66.7381333,12.905137 66.4030095,12.905137 C65.4844952,12.905137 64.8808381,13.4808767 64.8808381,14.3266986 C64.8808381,15.0657945 65.3686857,15.5362603 66.154019,15.5362603 C66.4703238,15.5362603 66.7866286,15.4600274 67.1311619,15.3061096 L66.9299429,16.6122329 C66.4131429,16.7465479 65.9535238,16.8140685 65.5221333,16.8140685 C64.0100952,16.8140685 63.0807238,15.8825753 63.0807238,14.5183699 C63.0807238,12.8470548 64.2779048,11.6462055 66.2025143,11.6462055 C66.7576762,11.6462055 67.3034286,11.7522055 67.849181,11.9729178 L67.4568762,13.1643288" id="Fill-25" fill="#1A1919"></path>
                    <path d="M70.980381,12.7896986 C70.2913143,12.7896986 69.6587048,13.5389589 69.6587048,14.5953288 C69.6587048,15.2487534 70.0517333,15.7090548 70.607619,15.7090548 C71.2966857,15.7090548 71.899619,14.9605205 71.899619,13.9034247 C71.899619,13.2122466 71.5261333,12.7896986 70.980381,12.7896986 Z M73.632419,13.9803836 C73.632419,15.6713014 72.4070095,16.8714247 70.4440381,16.8714247 C68.8646857,16.8714247 67.9164952,15.9972877 67.9164952,14.6142055 C67.9164952,12.8470548 69.1042667,11.6563699 71.0759238,11.6563699 C72.6755429,11.6563699 73.632419,12.5399452 73.632419,13.9803836 L73.632419,13.9803836 Z" id="Fill-26" fill="#1A1919"></path>
                    <polyline id="Fill-27" fill="#1A1919" points="77.2818667 10.0714521 75.8451048 16.7276712 74.1412571 16.7276712 75.5772952 10.0714521 77.2818667 10.0714521"></polyline>
                    <path d="M80.3363429,14.4515753 C79.4171048,14.4515753 78.9386667,14.7202055 78.9386667,15.2197123 C78.9386667,15.5464247 79.1869333,15.7765753 79.5705524,15.7765753 C80.1640762,15.7765753 80.6996952,15.2966712 80.8249143,14.4704521 C80.6526476,14.4515753 80.4890667,14.4515753 80.3363429,14.4515753 Z M82.213181,15.4789041 C82.1364571,15.8339315 82.0503238,16.2470411 82.0119619,16.7276712 L80.5853333,16.7276712 L80.6808762,15.978411 C80.297981,16.5447123 79.7138667,16.8329452 78.9763048,16.8329452 C77.9615238,16.8329452 77.3296381,16.2376027 77.3296381,15.3634658 C77.3296381,14.2591781 78.344419,13.567274 80.2313905,13.567274 C80.4796571,13.567274 80.7481905,13.5868767 81.0254095,13.6159178 C81.0355429,13.5578356 81.0355429,13.5004795 81.0355429,13.4525616 C81.0355429,12.9530548 80.7098286,12.6836986 80.0866286,12.6836986 C79.5133714,12.6836986 78.9763048,12.8085753 78.4790476,13.0583288 L78.6795429,11.9061233 C79.2158857,11.713726 79.7522286,11.6178904 80.3175238,11.6178904 C81.8013333,11.6178904 82.6054857,12.242274 82.6054857,13.1933699 C82.6054857,13.4235205 82.5671238,13.7306301 82.4998095,14.0762192 L82.213181,15.4789041 L82.213181,15.4789041 Z" id="Fill-28" fill="#1A1919"></path>
                    <path d="M86.3403429,10.0620137 L86.1680762,10.945589 L84.4917333,10.945589 L84.6553143,10.0620137 L86.3403429,10.0620137 Z M85.9864,11.7812466 L84.9129905,16.7276712 L83.2380952,16.7276712 L84.3100571,11.7812466 L85.9864,11.7812466 L85.9864,11.7812466 Z" id="Fill-29" fill="#1A1919"></path>
                    <path d="M90.5630476,13.2028082 C90.2568762,13.116411 90.0078857,13.0677671 89.8160762,13.0677671 C89.0314667,13.0677671 88.6862095,13.5578356 88.4661714,14.5953288 L88.0065524,16.7276712 L86.2831619,16.7276712 L87.2885333,11.7718082 L88.8490667,11.7718082 L88.6673905,12.6742603 C89.1458286,11.9830822 89.6242667,11.6563699 90.2952381,11.6563699 C90.5058667,11.6563699 90.7164952,11.6948493 90.9459429,11.7616438 L90.5630476,13.2028082" id="Fill-30" fill="#1A1919"></path>
                    <path d="M94.6228952,13.5193562 C94.6228952,12.9719315 94.2884952,12.6263425 93.7615619,12.6263425 C93.2353524,12.6263425 92.7945524,13.0394521 92.6027429,13.7502329 L94.6040762,13.7502329 C94.6142095,13.673274 94.6228952,13.5963151 94.6228952,13.5193562 Z M92.3827048,14.7006027 C92.450019,15.4309863 92.8517333,15.767137 93.6464762,15.767137 C94.1726857,15.767137 94.7575238,15.6422603 95.3220952,15.3925068 L95.1310095,16.6122329 C94.5468952,16.7951918 93.9338286,16.8910274 93.3113524,16.8910274 C91.7602286,16.8910274 90.8409905,15.978411 90.8409905,14.575726 C90.8409905,13.7691096 91.1855238,12.9334521 91.7218667,12.4056301 C92.2393905,11.8959589 92.9863619,11.6273288 93.9150095,11.6273288 C95.2844571,11.6273288 96.0314286,12.4056301 96.0314286,13.7596712 C96.0314286,14.0384658 95.9923429,14.3550137 95.9163429,14.7006027 L92.3827048,14.7006027 L92.3827048,14.7006027 Z" id="Fill-31" fill="#1A1919"></path>
                    <path d="M3.69142857,22.5387945 C3.03059048,22.5387945 2.45588571,23.2495753 2.45588571,24.2391507 C2.45588571,24.8148904 2.80041905,25.1996849 3.30780952,25.1996849 C3.99687619,25.1996849 4.60994286,24.4889041 4.60994286,23.5472466 C4.60994286,22.9424658 4.22704762,22.5387945 3.69142857,22.5387945 Z M7.1664381,19.6673562 L5.7687619,26.3330137 L4.23718095,26.3330137 L4.41813333,25.5067945 C3.93969524,26.1507808 3.32735238,26.4767671 2.61801905,26.4767671 C1.45051429,26.4767671 0.693409524,25.6418356 0.693409524,24.2776301 C0.693409524,22.4814384 1.77550476,21.2617123 3.30780952,21.2617123 C4.02582857,21.2617123 4.59112381,21.597863 4.92624762,22.2316849 L5.472,19.6673562 L7.1664381,19.6673562 L7.1664381,19.6673562 Z" id="Fill-32" fill="#1A1919"></path>
                    <path d="M11.0257905,23.1246986 C11.0257905,22.577274 10.6913905,22.2316849 10.1644571,22.2316849 C9.63752381,22.2316849 9.19744762,22.6447945 9.0056381,23.3555753 L11.0069714,23.3555753 C11.016381,23.2786164 11.0257905,23.2016575 11.0257905,23.1246986 Z M8.7856,24.3059452 C8.85219048,25.0363288 9.25462857,25.3724795 10.0493714,25.3724795 C10.575581,25.3724795 11.160419,25.2476027 11.7249905,24.9978493 L11.5339048,26.2183014 C10.9497905,26.4005342 10.3367238,26.4963699 9.71424762,26.4963699 C8.1624,26.4963699 7.24388571,25.5837534 7.24388571,24.1810685 C7.24388571,23.3744521 7.58841905,22.5387945 8.1247619,22.0109726 C8.6415619,21.5013014 9.38853333,21.2326712 10.317181,21.2326712 C11.6866286,21.2326712 12.4336,22.0109726 12.4336,23.3650137 C12.4336,23.6438082 12.3952381,23.9603562 12.3192381,24.3059452 L8.7856,24.3059452 L8.7856,24.3059452 Z" id="Fill-33" fill="#1A1919"></path>
                    <path d="M17.1072381,22.6346301 C16.6186667,22.471274 16.206819,22.3565616 15.804381,22.3565616 C15.3071238,22.3565616 15.0378667,22.5387945 15.0378667,22.8081507 C15.0378667,23.1537397 15.4308952,23.1922192 16.0533714,23.451411 C16.7431619,23.7396438 17.0587429,24.1041096 17.0587429,24.671137 C17.0587429,25.7180685 16.1974095,26.4673288 14.732419,26.4673288 C14.0621714,26.4673288 13.410019,26.3707671 12.7694476,26.1507808 L13.1233905,24.9593699 C13.592419,25.1902466 14.0419048,25.2955205 14.5022476,25.2955205 C15.066819,25.2955205 15.3643048,25.1321644 15.3643048,24.8540959 C15.3643048,24.5077808 15.0769524,24.4409863 14.6455619,24.2674658 C13.8414095,23.9414795 13.410019,23.6336438 13.410019,22.8749452 C13.410019,21.9819315 14.2626667,21.2515479 15.7472,21.2515479 C16.2929524,21.2515479 16.8676571,21.3575479 17.48,21.5492192 L17.1072381,22.6346301" id="Fill-34" fill="#1A1919"></path>
                    <path d="M24.1542476,19.6673562 L25.1892952,23.0477397 C25.3326095,23.5094932 25.4571048,23.9603562 25.5142857,24.4409863 L25.5910095,24.4409863 C25.6199619,24.0278767 25.7155048,23.5566849 25.821181,23.0383014 L26.5290667,19.6673562 L28.1482286,19.6673562 L26.7310095,26.3330137 L24.5472762,26.3330137 L23.4174095,22.6063151 C23.3023238,22.2411233 23.2357333,21.8860959 23.1973714,21.5303425 L23.1300571,21.5303425 C23.0540571,22.1256849 22.9766095,22.5583973 22.9194286,22.8459041 L22.1825905,26.3330137 L20.554019,26.3330137 L21.9712381,19.6673562 L24.1542476,19.6673562" id="Fill-35" fill="#1A1919"></path>
                    <path d="M31.1448,24.0561918 C30.2262857,24.0561918 29.7471238,24.3255479 29.7471238,24.8250548 C29.7471238,25.1517671 29.9961143,25.3819178 30.3790095,25.3819178 C30.9725333,25.3819178 31.5088762,24.9020137 31.6333714,24.0757945 C31.4611048,24.0561918 31.2982476,24.0561918 31.1448,24.0561918 Z M33.0216381,25.0842466 C32.9456381,25.439274 32.8595048,25.8531096 32.8211429,26.3330137 L31.3937905,26.3330137 L31.4900571,25.5837534 C31.1071619,26.1507808 30.5230476,26.4382877 29.7854857,26.4382877 C28.7707048,26.4382877 28.1380952,25.8429452 28.1380952,24.9688082 C28.1380952,23.8645205 29.1528762,23.1726164 31.0398476,23.1726164 C31.2888381,23.1726164 31.5573714,23.1922192 31.8345905,23.2212603 C31.844,23.1631781 31.844,23.1058219 31.844,23.0579041 C31.844,22.5583973 31.5190095,22.2890411 30.8965333,22.2890411 C30.3218286,22.2890411 29.7854857,22.4139178 29.2875048,22.6636712 L29.4887238,21.5114658 C30.0243429,21.3190685 30.5614095,21.2232329 31.125981,21.2232329 C32.6105143,21.2232329 33.4146667,21.8476164 33.4146667,22.7987123 C33.4146667,23.028863 33.3763048,23.3359726 33.3097143,23.6815616 L33.0216381,25.0842466 L33.0216381,25.0842466 Z" id="Fill-36" fill="#1A1919"></path>
                    <polyline id="Fill-37" fill="#1A1919" points="36.0001143 21.3960274 36.3837333 24.9499315 38.1360762 21.3960274 39.9354667 21.3960274 37.0438476 26.3330137 35.1192381 26.3330137 34.2955429 21.3960274 36.0001143 21.3960274"></polyline>
                    <path d="M42.9523048,19.6673562 L42.7800381,20.5509315 L41.1036952,20.5509315 L41.2672762,19.6673562 L42.9523048,19.6673562 Z M42.5983619,21.386589 L41.5256762,26.3330137 L39.8500571,26.3330137 L40.922019,21.386589 L42.5983619,21.386589 L42.5983619,21.386589 Z" id="Fill-38" fill="#1A1919"></path>
                    <path d="M46.1124571,22.5387945 C45.451619,22.5387945 44.8769143,23.2495753 44.8769143,24.2391507 C44.8769143,24.8148904 45.2221714,25.1996849 45.7295619,25.1996849 C46.4186286,25.1996849 47.0316952,24.4889041 47.0316952,23.5472466 C47.0316952,22.9424658 46.6480762,22.5387945 46.1124571,22.5387945 Z M49.2342476,21.3960274 L48.1897905,26.3330137 C47.883619,27.7640137 46.7255238,28.2925616 45.1736762,28.2925616 C44.5417905,28.2925616 43.8997714,28.1771233 43.2396571,27.9462466 L43.5559619,26.6691644 C43.9866286,26.9472329 44.5034286,27.0917123 45.0976762,27.0917123 C45.9973714,27.0917123 46.7052571,26.6691644 46.8876571,25.334 C46.3802667,26.0070274 45.7766095,26.3330137 45.049181,26.3330137 C43.8910857,26.3330137 43.1347048,25.4973562 43.1347048,24.1716301 C43.1347048,23.4702877 43.3250667,22.8270274 43.6992762,22.2992055 C44.1683048,21.6261781 44.8769143,21.2617123 45.7295619,21.2617123 C46.447581,21.2617123 47.0121524,21.597863 47.3472762,22.2316849 L47.5296762,21.3960274 L49.2342476,21.3960274 L49.2342476,21.3960274 Z" id="Fill-39" fill="#1A1919"></path>
                    <path d="M52.527581,24.0561918 C51.6090667,24.0561918 51.1306286,24.3255479 51.1306286,24.8250548 C51.1306286,25.1517671 51.3788952,25.3819178 51.7625143,25.3819178 C52.3560381,25.3819178 52.8916571,24.9020137 53.0161524,24.0757945 C52.8438857,24.0561918 52.6810286,24.0561918 52.527581,24.0561918 Z M54.4051429,25.0842466 C54.328419,25.439274 54.2415619,25.8531096 54.2039238,26.3330137 L52.7772952,26.3330137 L52.8728381,25.5837534 C52.4899429,26.1507808 51.9058286,26.4382877 51.1682667,26.4382877 C50.1534857,26.4382877 49.5216,25.8429452 49.5216,24.9688082 C49.5216,23.8645205 50.536381,23.1726164 52.4226286,23.1726164 C52.6723429,23.1726164 52.9401524,23.1922192 53.2173714,23.2212603 C53.226781,23.1631781 53.226781,23.1058219 53.226781,23.0579041 C53.226781,22.5583973 52.9017905,22.2890411 52.2793143,22.2890411 C51.7046095,22.2890411 51.1682667,22.4139178 50.6702857,22.6636712 L50.8715048,21.5114658 C51.4071238,21.3190685 51.9441905,21.2232329 52.5087619,21.2232329 C53.9932952,21.2232329 54.7974476,21.8476164 54.7974476,22.7987123 C54.7974476,23.028863 54.7590857,23.3359726 54.6924952,23.6815616 L54.4051429,25.0842466 L54.4051429,25.0842466 Z" id="Fill-40" fill="#1A1919"></path>
                    <path d="M58.417219,21.3960274 L59.633219,21.3960274 L59.3842286,22.577274 L58.1682286,22.577274 L57.8041524,24.2965068 C57.756381,24.5077808 57.7375619,24.6522603 57.7375619,24.7284932 C57.7375619,25.0842466 57.8902857,25.2381644 58.2739048,25.2381644 C58.4070857,25.2381644 58.5988952,25.2091233 58.8384762,25.1416027 L58.5894857,26.3235753 C58.1964571,26.3910959 57.8808762,26.4295753 57.642019,26.4295753 C56.6171048,26.4295753 56.0329905,25.8821507 56.0329905,24.9303288 C56.0329905,24.7575342 56.0518095,24.5941781 56.0814857,24.4409863 L56.4737905,22.577274 L55.468419,22.577274 L55.7174095,21.3960274 L56.7220571,21.3960274 L56.9710476,20.2242192 L58.7711619,19.743589 L58.417219,21.3960274" id="Fill-41" fill="#1A1919"></path>
                    <path d="M63.5302095,23.1246986 C63.5302095,22.577274 63.1958095,22.2316849 62.6688762,22.2316849 C62.1419429,22.2316849 61.7018667,22.6447945 61.5100571,23.3555753 L63.5113905,23.3555753 C63.5215238,23.2786164 63.5302095,23.2016575 63.5302095,23.1246986 Z M61.290019,24.3059452 C61.3573333,25.0363288 61.7590476,25.3724795 62.5537905,25.3724795 C63.08,25.3724795 63.6648381,25.2476027 64.2294095,24.9978493 L64.0383238,26.2183014 C63.4542095,26.4005342 62.8411429,26.4963699 62.2186667,26.4963699 C60.6675429,26.4963699 59.7483048,25.5837534 59.7483048,24.1810685 C59.7483048,23.3744521 60.0928381,22.5387945 60.629181,22.0109726 C61.1467048,21.5013014 61.8936762,21.2326712 62.8223238,21.2326712 C64.1917714,21.2326712 64.938019,22.0109726 64.938019,23.3650137 C64.938019,23.6438082 64.8996571,23.9603562 64.8236571,24.3059452 L61.290019,24.3059452 L61.290019,24.3059452 Z" id="Fill-42" fill="#1A1919"></path>
                    <path d="M68.0120381,21.3960274 L67.4952381,23.8739589 C67.4568762,24.0467534 67.4380571,24.2101096 67.4380571,24.3640274 C67.4380571,24.8439315 67.6675048,25.1031233 68.0887619,25.1031233 C68.7112381,25.1031233 69.1904,24.5556986 69.4198476,23.4804521 L69.8606476,21.3960274 L71.5833143,21.3960274 L70.5301714,26.3330137 L68.9884571,26.3330137 L69.1802667,25.4973562 C68.6251048,26.1311781 67.9924952,26.4578904 67.3034286,26.4578904 C66.2886476,26.4578904 65.6951238,25.8429452 65.6951238,24.7386575 C65.6951238,24.4119452 65.7523048,23.9509178 65.8768,23.3650137 L66.2886476,21.3960274 L68.0120381,21.3960274" id="Fill-43" fill="#1A1919"></path>
                    <path d="M76.0940952,22.8081507 C75.7879238,22.7217534 75.5382095,22.6731096 75.3478476,22.6731096 C74.5625143,22.6731096 74.2172571,23.1631781 73.9964952,24.2006712 L73.5376,26.3330137 L71.8142095,26.3330137 L72.8188571,21.3771507 L74.3801143,21.3771507 L74.1984381,22.2796027 C74.6768762,21.5884247 75.1560381,21.2617123 75.8262857,21.2617123 C76.0369143,21.2617123 76.2475429,21.3001918 76.4769905,21.3669863 L76.0940952,22.8081507" id="Fill-44" fill="#1A1919"></path>
                    <path d="M80.3841143,22.6346301 C79.8962667,22.471274 79.4836952,22.3565616 79.081981,22.3565616 C78.584,22.3565616 78.3154667,22.5387945 78.3154667,22.8081507 C78.3154667,23.1537397 78.7084952,23.1922192 79.3309714,23.451411 C80.0207619,23.7396438 80.3363429,24.1041096 80.3363429,24.671137 C80.3363429,25.7180685 79.4742857,26.4673288 78.0092952,26.4673288 C77.3390476,26.4673288 76.687619,26.3707671 76.0463238,26.1507808 L76.4009905,24.9593699 C76.870019,25.1902466 77.3195048,25.2955205 77.7798476,25.2955205 C78.344419,25.2955205 78.641181,25.1321644 78.641181,24.8540959 C78.641181,24.5077808 78.3538286,24.4409863 77.9231619,24.2674658 C77.1190095,23.9414795 76.687619,23.6336438 76.687619,22.8749452 C76.687619,21.9819315 77.5402667,21.2515479 79.0248,21.2515479 C79.5705524,21.2515479 80.1452571,21.3575479 80.7576,21.5492192 L80.3841143,22.6346301" id="Fill-45" fill="#1A1919"></path>
                    <polygon id="Fill-46" fill="#0060A0" points="118.053333 35.3074384 132.649676 35.3074384 132.649676 26.3344658 118.053333 26.3344658"></polygon>
                    <path d="M125.350781,26.8034795 C125.245829,27.0009589 125.005524,27.2826575 124.605257,27.7894247 C124.140571,28.3716986 124.220914,29.149274 124.443124,29.6095753 C124.694286,30.1388493 124.841943,30.5795479 124.956305,30.9984658 C125.11699,31.6046986 125.009867,32.4163973 125.021448,32.3423425 L124.616838,32.3423425 C124.616838,31.3527671 124.309943,30.421274 123.565143,30.0067123 C122.507657,29.4186301 121.4632,30.4394247 121.793981,31.4986986 C121.969143,32.0533836 122.282552,32.2414247 122.36941,32.2414247 C122.36941,32.2414247 122.2232,31.6293836 122.666171,31.3171918 C123.08019,31.0224247 123.593371,31.1995753 123.830781,31.5495205 C124.057333,31.8856712 124.090629,32.3423425 124.090629,32.3423425 L123.330629,32.3423425 L123.330629,32.9079178 L124.860038,32.9064658 C124.860038,32.9064658 124.818781,33.7021918 123.982057,33.6245068 C123.982057,33.6245068 124.085562,34.2525205 124.860038,33.9236301 C124.860038,33.9236301 124.818781,34.581411 125.350781,34.9117534 C125.883505,34.581411 125.842248,33.9236301 125.842248,33.9236301 C126.618895,34.2525205 126.723124,33.6245068 126.723124,33.6245068 C125.883505,33.7021918 125.842248,32.9064658 125.842248,32.9064658 L127.372381,32.9079178 L127.372381,32.3423425 L126.61021,32.3423425 C126.61021,32.3423425 126.647124,31.8856712 126.871505,31.5495205 C127.108914,31.1995753 127.623543,31.0224247 128.038286,31.3171918 C128.479086,31.6293836 128.336495,32.2414247 128.336495,32.2414247 C128.422629,32.2414247 128.733143,32.0533836 128.909029,31.4986986 C129.242705,30.4394247 128.196076,29.4186301 127.137143,30.0067123 C126.392343,30.421274 126.086895,31.3527671 126.086895,32.3423425 L125.681562,32.3423425 C125.692419,32.4163973 125.585295,31.6046986 125.747429,30.9984658 C125.859619,30.5795479 126.008,30.1388493 126.262057,29.6095753 C126.482819,29.149274 126.56461,28.3716986 126.098476,27.7894247 C125.69821,27.2826575 125.459352,27.0009589 125.350781,26.8034795" id="Fill-47" fill="#FFFFFE"></path>
                    <polygon id="Fill-48" fill="#0060A0" points="136.902057 35.3074384 151.501295 35.3074384 151.501295 26.3344658 136.902057 26.3344658"></polygon>
                    <path d="M144.199505,26.8034795 C144.09021,27.0009589 143.8528,27.2826575 143.452533,27.7894247 C142.983505,28.3716986 143.066743,29.149274 143.288952,29.6095753 C143.54301,30.1388493 143.687771,30.5795479 143.802133,30.9984658 C143.962819,31.6046986 143.85859,32.4163973 143.870171,32.3423425 L143.464114,32.3423425 C143.464114,31.3527671 143.157219,30.421274 142.412419,30.0067123 C141.354933,29.4186301 140.311924,30.4394247 140.642705,31.4986986 C140.817867,32.0533836 141.127657,32.2414247 141.215238,32.2414247 C141.215238,32.2414247 141.071924,31.6293836 141.514895,31.3171918 C141.927467,31.0224247 142.4392,31.1995753 142.678057,31.5495205 C142.903162,31.8856712 142.939352,32.3423425 142.939352,32.3423425 L142.179352,32.3423425 L142.179352,32.9079178 L143.705867,32.9064658 C143.705867,32.9064658 143.666057,33.7021918 142.830781,33.6245068 C142.830781,33.6245068 142.932838,34.2525205 143.705867,33.9236301 C143.705867,33.9236301 143.666057,34.581411 144.199505,34.9117534 C144.727886,34.581411 144.688076,33.9236301 144.688076,33.9236301 C145.466171,34.2525205 145.567505,33.6245068 145.567505,33.6245068 C144.727886,33.7021918 144.688076,32.9064658 144.688076,32.9064658 L146.219657,32.9079178 L146.219657,32.3423425 L145.456038,32.3423425 C145.456038,32.3423425 145.495848,31.8856712 145.718781,31.5495205 C145.95619,31.1995753 146.470819,31.0224247 146.88701,31.3171918 C147.323467,31.6293836 147.183771,32.2414247 147.183771,32.2414247 C147.271352,32.2414247 147.581143,32.0533836 147.754857,31.4986986 C148.085638,30.4394247 147.03901,29.4186301 145.983695,30.0067123 C145.241067,30.421274 144.931276,31.3527671 144.931276,32.3423425 L144.530286,32.3423425 C144.539695,32.4163973 144.434019,31.6046986 144.595429,30.9984658 C144.706895,30.5795479 144.855276,30.1388493 145.10861,29.6095753 C145.328648,29.149274 145.410438,28.3716986 144.944305,27.7894247 C144.545486,27.2826575 144.305181,27.0009589 144.199505,26.8034795" id="Fill-49" fill="#FFFFFE"></path>
                    <polygon id="Fill-50" fill="#0060A0" points="118.053333 48.5516301 132.649676 48.5516301 132.649676 39.5815616 118.053333 39.5815616"></polygon>
                    <path d="M125.350781,40.0505753 C125.245829,40.2480548 125.005524,40.5297534 124.605257,41.0365205 C124.140571,41.6166164 124.220914,42.3949178 124.443124,42.8544932 C124.694286,43.3859452 124.841943,43.8244658 124.956305,44.2441096 C125.11699,44.8510685 125.009867,45.6620411 125.021448,45.5879863 L124.616838,45.5879863 C124.616838,44.598411 124.309943,43.6669178 123.565143,43.2523562 C122.507657,42.6613699 121.4632,43.6850685 121.793981,44.7443425 C121.969143,45.2990274 122.282552,45.4863425 122.36941,45.4863425 C122.36941,45.4863425 122.2232,44.8750274 122.666171,44.5613836 C123.08019,44.2695205 123.593371,44.4452192 123.830781,44.7937123 C124.057333,45.129863 124.090629,45.5879863 124.090629,45.5879863 L123.330629,45.5879863 L123.330629,46.1528356 L124.860038,46.1513836 C124.860038,46.1513836 124.818781,46.9478356 123.982057,46.8716027 C123.982057,46.8716027 124.085562,47.4981644 124.860038,47.1678219 C124.860038,47.1678219 124.818781,47.8270548 125.350781,48.1588493 C125.883505,47.8270548 125.842248,47.1678219 125.842248,47.1678219 C126.618895,47.4981644 126.723124,46.8716027 126.723124,46.8716027 C125.883505,46.9478356 125.842248,46.1513836 125.842248,46.1513836 L127.372381,46.1528356 L127.372381,45.5879863 L126.61021,45.5879863 C126.61021,45.5879863 126.647124,45.129863 126.871505,44.7937123 C127.108914,44.4452192 127.623543,44.2695205 128.038286,44.5613836 C128.479086,44.8750274 128.336495,45.4863425 128.336495,45.4863425 C128.422629,45.4863425 128.733143,45.2990274 128.909029,44.7443425 C129.242705,43.6850685 128.196076,42.6613699 127.137143,43.2523562 C126.392343,43.6669178 126.086895,44.598411 126.086895,45.5879863 L125.681562,45.5879863 C125.692419,45.6620411 125.585295,44.8510685 125.747429,44.2441096 C125.859619,43.8244658 126.008,43.3859452 126.262057,42.8544932 C126.482819,42.3949178 126.56461,41.6166164 126.098476,41.0365205 C125.69821,40.5297534 125.459352,40.2480548 125.350781,40.0505753" id="Fill-51" fill="#FFFFFE"></path>
                    <polygon id="Fill-52" fill="#0060A0" points="136.902057 48.5516301 151.501295 48.5516301 151.501295 39.5815616 136.902057 39.5815616"></polygon>
                    <path d="M144.199505,40.0505753 C144.09021,40.2480548 143.8528,40.5297534 143.452533,41.0365205 C142.983505,41.6166164 143.066743,42.3949178 143.288952,42.8544932 C143.54301,43.3859452 143.687771,43.8244658 143.802133,44.2441096 C143.962819,44.8510685 143.85859,45.6620411 143.870171,45.5879863 L143.464114,45.5879863 C143.464114,44.598411 143.157219,43.6669178 142.412419,43.2523562 C141.354933,42.6613699 140.311924,43.6850685 140.642705,44.7443425 C140.817867,45.2990274 141.127657,45.4863425 141.215238,45.4863425 C141.215238,45.4863425 141.071924,44.8750274 141.514895,44.5613836 C141.927467,44.2695205 142.4392,44.4452192 142.678057,44.7937123 C142.903162,45.129863 142.939352,45.5879863 142.939352,45.5879863 L142.179352,45.5879863 L142.179352,46.1528356 L143.705867,46.1513836 C143.705867,46.1513836 143.666057,46.9478356 142.830781,46.8716027 C142.830781,46.8716027 142.932838,47.4981644 143.705867,47.1678219 C143.705867,47.1678219 143.666057,47.8270548 144.199505,48.1588493 C144.727886,47.8270548 144.688076,47.1678219 144.688076,47.1678219 C145.466171,47.4981644 145.567505,46.8716027 145.567505,46.8716027 C144.727886,46.9478356 144.688076,46.1513836 144.688076,46.1513836 L146.219657,46.1528356 L146.219657,45.5879863 L145.456038,45.5879863 C145.456038,45.5879863 145.495848,45.129863 145.718781,44.7937123 C145.95619,44.4452192 146.470819,44.2695205 146.88701,44.5613836 C147.323467,44.8750274 147.183771,45.4863425 147.183771,45.4863425 C147.271352,45.4863425 147.581143,45.2990274 147.754857,44.7443425 C148.085638,43.6850685 147.03901,42.6613699 145.983695,43.2523562 C145.241067,43.6669178 144.931276,44.598411 144.931276,45.5879863 L144.530286,45.5879863 C144.539695,45.6620411 144.434019,44.8510685 144.595429,44.2441096 C144.706895,43.8244658 144.855276,43.3859452 145.10861,42.8544932 C145.328648,42.3949178 145.410438,41.6166164 144.944305,41.0365205 C144.545486,40.5297534 144.305181,40.2480548 144.199505,40.0505753" id="Fill-53" fill="#FFFFFE"></path>
                </g>
            </g>
        </g>
    </g>
</svg>